<svg id="Layer_5" enable-background="new 0 0 64 64" height="512" viewBox="0 0 64 64" width="512" xmlns="http://www.w3.org/2000/svg"><g><path d="m4 45h2c0-1.103.897-2 2-2v-2c-2.206 0-4 1.794-4 4z"/><path d="m6 51h-2c0 2.206 1.794 4 4 4v-2c-1.103 0-2-.897-2-2z"/><path d="m22 52.855v2.145h2v-2.145c1.155-.366 2-1.435 2-2.709 0-1.087-.604-2.065-1.578-2.553l-1.95-.975c-.291-.145-.472-.438-.472-.764 0-.47.383-.854.854-.854h.292c.471 0 .854.384.854.854v.146h2v-.146c0-1.275-.845-2.344-2-2.709v-2.145h-2v2.145c-1.155.366-2 1.435-2 2.709 0 1.087.604 2.065 1.578 2.553l1.95.975c.291.145.472.438.472.764 0 .47-.383.854-.854.854h-.292c-.471 0-.854-.384-.854-.854v-.146h-2v.146c0 1.274.845 2.343 2 2.709z"/><path d="m59.78 49.116c.139-.346.22-.721.22-1.116v-2c0-1.654-1.346-3-3-3h-3v-29.586l1.5-1.5 4.167 4.167 2.549-15.298-15.297 2.55 4.167 4.167-10.086 10.086-6-6-25.414 25.414h-6.586c-1.654 0-3 1.346-3 3v16c0 1.654 1.346 3 3 3h35v1c0 1.654 1.346 3 3 3h16c1.654 0 3-1.346 3-3v-2c0-.395-.081-.77-.22-1.116 1.275-.346 2.22-1.501 2.22-2.884v-2c0-1.383-.945-2.539-2.22-2.884zm-1.78-3.116v2c0 .552-.449 1-1 1h-14-2c-.551 0-1-.448-1-1v-2c0-.552.449-1 1-1h1v2h2v-2h2v2h2v-2h2v2h2v-2h2v2h2v-2h1c.551 0 1 .448 1 1zm-39.586-9 5.586-5.586v5.586zm9.586-9.586v9.586h-2v-7.586zm2-2 2-2v13.586h-2zm4-4 1-1 1 1v15.586h-2zm4 2 2 2v11.586h-2zm4 2 2-2v13.77c-.314-.112-.648-.184-1-.184h-1zm4 14.586v-18.586l2-2v23.586h-2v-2zm6 3h-2v-25.586l2-2zm-17-28.586 6 6 12.914-12.914-2.833-2.833 8.703-1.45-1.451 8.702-2.833-2.833-14.5 14.5-6-6-19.414 19.414h-3.172zm-32 42.586c-.551 0-1-.448-1-1v-16c0-.552.449-1 1-1h13.695c-2.834 1.992-4.695 5.28-4.695 9s1.861 7.008 4.695 9zm20-18c4.962 0 9 4.037 9 9s-4.038 9-9 9-9-4.037-9-9 4.038-9 9-9zm11 9c0-3.72-1.861-7.008-4.695-9h13.695c.551 0 1 .448 1 1v1 2h-3c-1.654 0-3 1.346-3 3v2c0 1.383.945 2.539 2.22 2.884-.139.346-.22.721-.22 1.116v2c0 .395.081.77.22 1.116-.95.258-1.708.965-2.036 1.884h-8.88c2.835-1.992 4.696-5.28 4.696-9zm24 12c0 .552-.449 1-1 1h-16c-.551 0-1-.448-1-1v-2c0-.552.449-1 1-1h1v2h2v-2h2v2h2v-2h2v2h2v-2h2v2h2v-2h1c.551 0 1 .448 1 1zm2-6c0 .552-.449 1-1 1h-2-14c-.551 0-1-.448-1-1v-2c0-.552.449-1 1-1h1v2h2v-2h2v2h2v-2h2v2h2v-2h2v2h2v-2h1c.551 0 1 .448 1 1z"/><path d="m22 1h-18v6h18zm-2 4h-14v-2h14z"/><path d="m4 9h18v2h-18z"/><path d="m4 13h18v2h-18z"/><path d="m4 21h18v2h-18z"/><path d="m4 17h2v2h-2z"/><path d="m8 17h2v2h-2z"/><path d="m12 17h10v2h-10z"/></g></svg>